<?xml version="1.0" standalone="no"?>
<!DOCTYPE svg PUBLIC "-//W3C//DTD SVG 20010904//EN"
 "http://www.w3.org/TR/2001/REC-SVG-20010904/DTD/svg10.dtd">
<svg version="1.0" xmlns="http://www.w3.org/2000/svg"
 width="879.000000pt" height="902.000000pt" viewBox="0 0 879.000000 902.000000"
 preserveAspectRatio="xMidYMid meet">
<metadata>
Created by potrace 1.16, written by Peter Selinger 2001-2019
</metadata>
<g transform="translate(0.000000,902.000000) scale(0.100000,-0.100000)"
fill="#000000" stroke="none">
<path d="M4010 8970 c-1310 -123 -2477 -816 -3223 -1915 -410 -605 -658 -1286
-744 -2047 -24 -215 -24 -732 0 -943 121 -1039 539 -1931 1247 -2659 1224
-1259 3088 -1656 4715 -1004 1004 402 1836 1181 2314 2163 206 424 345 880
410 1345 59 425 53 933 -14 1356 -279 1739 -1579 3170 -3260 3588 -375 93
-573 117 -1005 121 -190 2 -388 -1 -440 -5z m820 -95 c749 -78 1474 -358 2076
-803 371 -274 725 -636 990 -1014 345 -491 603 -1107 713 -1703 56 -303 66
-418 66 -815 -1 -413 -12 -541 -75 -865 -273 -1389 -1221 -2577 -2505 -3139
-1344 -589 -2893 -439 -4108 397 -267 184 -597 480 -815 732 -556 644 -921
1461 -1026 2295 -41 323 -46 775 -12 1070 164 1402 953 2611 2158 3306 576
333 1201 515 1913 558 114 7 480 -5 625 -19z"/>
<path d="M4125 8784 c-223 -22 -361 -39 -470 -59 -1494 -274 -2732 -1358
-3220 -2820 -257 -773 -291 -1622 -94 -2410 407 -1633 1733 -2875 3361 -3150
274 -46 450 -58 778 -52 216 4 335 11 445 26 764 104 1457 399 2050 872 644
514 1129 1210 1387 1994 258 783 285 1644 78 2440 -232 891 -738 1676 -1452
2251 -606 489 -1331 793 -2118 889 -128 16 -645 29 -745 19z m600 -54 c1161
-97 2214 -674 2930 -1605 724 -942 1016 -2141 810 -3330 -180 -1038 -757
-1988 -1594 -2623 -998 -759 -2271 -1019 -3481 -711 -1576 400 -2785 1721
-3065 3345 -45 261 -58 429 -59 729 0 414 38 719 139 1100 123 470 355 965
636 1360 181 256 459 560 694 760 661 563 1462 900 2315 974 138 12 535 12
675 1z"/>
<path d="M4145 8604 c-22 -2 -92 -9 -155 -15 -882 -83 -1744 -495 -2395 -1144
-1011 -1009 -1422 -2476 -1085 -3880 224 -934 780 -1770 1556 -2337 546 -398
1173 -646 1859 -735 200 -26 739 -26 940 0 924 119 1732 522 2380 1188 1067
1097 1428 2711 936 4179 -500 1487 -1791 2543 -3336 2726 -122 15 -607 27
-700 18z m-146 -243 c-19 -22 -94 -106 -166 -187 -137 -152 -156 -186 -110
-198 44 -12 342 -7 360 7 11 7 34 74 62 172 45 161 61 205 77 205 16 0 8 -48
-31 -176 -54 -182 -53 -180 -35 -199 14 -14 42 -16 215 -13 170 3 201 5 215
20 16 16 13 27 -42 187 -32 94 -55 174 -51 178 15 15 41 -14 59 -68 11 -30 35
-106 54 -169 39 -131 54 -150 120 -150 24 0 44 -4 44 -10 0 -5 -24 -22 -52
-36 -51 -26 -56 -27 -121 -16 -83 15 -431 16 -457 2 -27 -15 -80 -260 -80
-372 0 -58 -15 -103 -43 -126 -12 -10 -18 -8 -31 13 l-16 25 -281 0 c-300 0
-324 -4 -350 -52 -6 -12 -67 -154 -136 -317 -68 -162 -130 -306 -139 -319 -8
-12 -29 -32 -47 -42 -31 -19 -54 -20 -518 -20 -268 0 -501 -3 -519 -6 -17 -4
-43 -19 -57 -33 -42 -43 -423 -871 -423 -919 0 -29 29 -42 94 -42 63 0 106
-13 106 -33 0 -16 -60 -27 -141 -27 -91 0 -96 -8 -144 -227 -83 -379 -123
-817 -78 -854 13 -11 73 -13 317 -10 271 3 303 2 315 -13 30 -36 3 -40 -307
-44 -163 -3 -307 -8 -319 -13 -30 -11 -30 -48 2 -299 28 -223 52 -350 100
-535 56 -213 73 -263 97 -276 17 -9 113 -10 373 -5 301 6 353 5 370 -8 16 -12
18 -17 7 -28 -10 -10 -91 -14 -360 -18 -191 -3 -353 -9 -359 -13 -7 -5 -13
-15 -13 -24 0 -19 344 -744 373 -786 39 -57 56 -59 328 -56 221 4 250 2 265
-13 15 -15 15 -17 -2 -26 -11 -5 -116 -12 -235 -15 -119 -4 -224 -9 -233 -13
-37 -14 -35 -18 247 -384 191 -248 190 -247 265 -281 54 -24 62 -32 62 -55 0
-15 16 -56 35 -91 19 -35 35 -68 35 -73 0 -24 -30 -5 -90 55 -95 96 -95 96
-438 89 -199 -4 -296 -3 -315 5 -28 11 -45 36 -32 49 4 4 131 7 283 7 153 0
285 4 295 9 9 4 17 16 17 26 0 10 -71 110 -157 222 -87 112 -189 245 -227 296
-104 137 -85 132 -467 132 -258 0 -319 3 -335 14 -16 12 -17 17 -6 28 10 10
83 14 320 16 195 3 312 8 320 14 17 15 9 35 -66 168 -86 150 -177 341 -246
514 -31 77 -63 148 -73 158 -15 17 -40 18 -358 18 -297 0 -344 2 -355 15 -30
36 -1 40 333 45 177 3 328 9 334 13 19 12 16 37 -22 170 -68 233 -116 493
-138 760 -8 92 -19 163 -26 170 -9 9 -96 12 -329 12 -298 0 -352 4 -352 26 0
23 68 29 328 29 278 0 345 7 356 36 3 8 13 88 21 177 46 487 56 565 91 706 33
136 34 144 18 162 -16 18 -36 19 -329 19 -257 0 -315 3 -324 14 -9 11 -9 16 1
23 7 4 160 10 340 13 l328 5 24 25 c14 15 39 71 61 140 61 184 140 374 222
530 165 312 150 279 130 295 -16 11 -68 13 -290 8 -286 -6 -367 -1 -367 22 0
8 6 17 13 22 6 4 165 10 352 13 312 5 342 7 368 24 15 10 69 80 119 155 105
157 207 292 307 407 62 71 79 97 69 106 -2 1 -131 5 -287 8 -288 5 -324 11
-264 40 21 10 97 14 308 15 275 2 281 2 326 26 63 32 396 356 382 370 -7 7
-85 10 -212 9 -164 0 -201 2 -201 13 0 32 52 41 280 47 259 6 245 2 403 119
238 176 585 361 565 301 -2 -8 -63 -47 -134 -88 -115 -65 -368 -230 -433 -281
-15 -12 -22 -24 -18 -35 6 -14 32 -16 223 -16 251 0 258 2 331 88 144 172 297
341 316 350 39 18 42 -5 6 -47z m902 -86 c157 -169 219 -240 219 -254 0 -33
-46 3 -174 137 -198 205 -229 240 -221 251 14 23 68 -19 176 -134z m274 69
c139 -71 330 -187 435 -265 52 -39 109 -77 127 -85 25 -11 85 -14 248 -14 168
0 223 -3 251 -15 20 -8 34 -20 32 -27 -4 -10 -56 -14 -204 -18 -177 -4 -199
-7 -199 -22 0 -16 296 -300 362 -348 l35 -25 307 -6 c168 -3 314 -9 324 -13
10 -5 16 -14 14 -20 -2 -8 -90 -13 -282 -18 -153 -4 -284 -9 -292 -12 -12 -5
-12 -10 4 -30 10 -13 119 -157 242 -321 128 -170 237 -305 255 -316 29 -18 55
-19 356 -19 179 0 335 -3 348 -6 34 -10 26 -31 -15 -38 -21 -3 -163 -6 -316
-6 -278 0 -317 -4 -317 -35 0 -8 32 -72 71 -141 102 -180 201 -401 313 -700
45 -120 2 -109 408 -109 194 0 359 -4 366 -8 19 -13 14 -34 -10 -41 -13 -3
-168 -6 -345 -6 -285 0 -323 -2 -338 -16 -10 -11 -14 -25 -11 -38 84 -293 130
-548 149 -818 10 -130 18 -192 28 -204 13 -16 42 -17 355 -11 207 3 347 1 357
-5 21 -11 22 -34 1 -42 -9 -3 -163 -6 -342 -6 -244 0 -333 -4 -352 -13 -25
-12 -25 -14 -37 -216 -14 -242 -41 -440 -89 -651 -46 -201 -49 -225 -33 -235
7 -5 159 -7 338 -6 185 1 332 -3 340 -8 8 -5 11 -15 8 -23 -6 -17 -197 -28
-499 -28 l-190 0 -27 -27 c-19 -20 -43 -75 -80 -183 -65 -187 -155 -402 -222
-528 -52 -97 -57 -116 -36 -129 6 -4 156 -8 332 -8 287 0 320 -2 323 -16 2 -9
-5 -20 -15 -25 -10 -4 -169 -10 -354 -13 -276 -5 -339 -9 -354 -21 -27 -23
-437 -640 -432 -653 7 -23 71 -28 308 -21 257 6 282 3 245 -34 -15 -15 -55
-18 -309 -22 l-292 -5 -45 -27 c-56 -33 -495 -472 -486 -486 4 -7 70 -8 197
-5 184 6 191 5 187 -13 -6 -33 -62 -43 -254 -43 -125 -1 -195 -5 -227 -15 -26
-8 -91 -45 -144 -84 -242 -172 -394 -259 -537 -307 -75 -25 -116 -31 -116 -17
0 4 79 47 176 96 202 102 466 271 462 295 -3 14 -34 16 -226 19 -196 2 -226 0
-256 -15 -19 -10 -105 -99 -193 -198 -101 -115 -167 -181 -181 -183 -12 -2
-22 1 -22 5 0 5 43 56 97 114 132 143 209 247 195 261 -19 19 -352 11 -373 -8
-9 -8 -33 -74 -54 -147 -49 -171 -71 -218 -89 -188 -3 4 15 73 39 152 25 79
45 151 45 160 0 36 -23 40 -199 37 -141 -2 -173 -6 -186 -19 -15 -15 -13 -28
29 -159 49 -151 53 -174 34 -168 -7 3 -32 58 -56 124 -59 166 -71 190 -98 203
-29 13 -312 15 -333 2 -7 -5 -11 -16 -7 -27 9 -27 156 -189 249 -275 42 -39
77 -75 77 -80 0 -12 -37 -12 -59 0 -9 6 -91 89 -182 187 -105 114 -176 182
-199 192 -28 12 -70 13 -232 7 -120 -4 -201 -11 -205 -18 -3 -6 6 -20 21 -32
59 -47 279 -174 449 -260 98 -49 178 -94 177 -100 -1 -5 -9 -9 -18 -7 -27 5
-260 102 -334 139 -60 29 -244 143 -352 217 -35 24 -88 42 -168 60 -32 7 -35
24 -12 68 17 34 23 34 134 3 40 -11 106 -15 247 -15 189 0 243 7 243 33 0 7
-58 108 -130 225 -71 116 -132 222 -135 235 -8 31 16 51 84 71 43 13 103 16
286 16 180 0 235 3 250 14 17 12 18 20 8 92 -11 88 -8 111 13 94 7 -6 18 -45
25 -86 17 -106 20 -109 126 -109 423 0 551 5 572 23 19 15 25 46 51 249 33
251 35 263 56 263 21 0 18 -52 -16 -279 -22 -149 -28 -207 -20 -221 10 -19 23
-20 288 -20 161 0 293 4 315 11 47 13 50 20 193 378 l109 273 -29 23 c-35 28
-28 42 35 70 35 16 46 17 86 7 35 -10 164 -11 539 -6 439 6 497 9 521 24 48
30 205 366 312 672 49 140 51 165 14 179 -18 6 -123 9 -285 7 -263 -3 -300 1
-262 33 13 11 77 15 298 19 155 3 287 9 294 13 23 16 42 67 73 198 57 248 99
586 99 801 0 111 6 108 -209 108 -130 0 -182 3 -195 13 -17 12 -17 14 0 28 13
11 59 15 198 17 105 2 186 8 193 14 48 39 -53 765 -140 1006 -23 65 -29 67
-238 67 -137 0 -191 3 -200 13 -29 28 8 37 184 42 95 3 178 9 185 13 6 5 12
18 12 30 0 66 -312 760 -389 865 -44 59 -85 82 -147 82 -60 0 -114 17 -114 35
0 8 22 14 66 18 78 6 93 16 74 52 -14 26 -361 473 -436 562 -40 46 -51 53
-102 63 -101 20 -132 31 -132 45 0 13 8 17 63 29 22 5 26 10 18 24 -12 22
-303 293 -353 328 -29 21 -58 29 -141 40 -109 14 -157 27 -157 43 0 12 36 21
88 21 72 0 57 19 -93 120 -147 99 -217 141 -372 221 -161 85 -147 75 -139 88
10 15 99 -14 201 -65z m235 -539 c355 -124 427 -200 760 -800 94 -170 104
-183 180 -235 122 -83 230 -225 291 -385 49 -127 54 -179 40 -424 -15 -253
-16 -247 75 -468 34 -83 72 -190 84 -238 21 -86 22 -95 12 -389 -9 -251 -14
-314 -31 -381 -74 -279 -216 -503 -487 -765 -179 -173 -327 -280 -579 -420
-145 -80 -194 -123 -319 -275 -201 -244 -196 -260 31 -102 253 177 413 281
563 367 171 97 206 122 363 252 115 96 141 111 150 86 2 -7 -9 -72 -23 -143
-29 -140 -52 -193 -148 -350 -114 -188 -224 -276 -474 -379 -48 -20 -154 -66
-235 -102 -189 -84 -243 -95 -468 -98 -215 -3 -205 1 -401 -151 -171 -133
-196 -150 -269 -175 -57 -20 -615 -156 -740 -180 -203 -41 -422 -176 -656
-406 -74 -74 -140 -134 -146 -134 -18 0 -44 38 -59 87 -8 26 -44 163 -80 303
-76 296 -76 289 -31 620 33 238 43 291 70 355 29 68 195 379 362 675 76 135
148 273 161 306 12 34 44 161 69 282 59 283 116 494 158 585 31 66 95 182 224
406 69 122 157 206 356 340 185 125 282 212 373 336 79 107 127 202 158 309
35 120 33 164 -11 287 -40 112 -65 148 -89 129 -22 -19 -31 -71 -49 -265 -27
-306 -36 -323 -286 -537 -148 -126 -400 -348 -477 -418 -25 -24 -54 -65 -71
-102 -52 -115 -292 -552 -327 -594 -46 -57 -106 -112 -189 -175 -119 -89 -136
-92 -341 -59 -69 12 -207 25 -307 29 -158 7 -192 12 -256 35 -77 27 -192 86
-225 114 -39 35 -116 226 -116 288 0 42 30 74 70 74 16 0 51 -14 77 -30 83
-53 131 -63 313 -65 182 -2 148 6 461 -104 137 -48 185 -55 176 -27 -4 15
-182 108 -280 146 -43 17 -158 51 -255 76 -273 70 -431 153 -473 249 -41 92
-44 307 -6 381 8 16 49 59 90 96 58 52 83 84 116 147 59 113 39 141 -56 81
-34 -22 -59 -30 -91 -30 -24 0 -76 -8 -114 -17 -106 -25 -126 -2 -70 81 70
101 174 161 608 346 141 61 279 124 306 142 33 21 66 55 99 104 65 97 100 136
169 189 116 89 238 144 490 219 179 54 269 95 363 166 75 56 92 83 102 155 15
101 85 201 136 193 38 -5 27 -36 -66 -191 -47 -78 -85 -147 -85 -154 0 -7 12
-13 27 -13 21 0 43 16 89 65 72 76 199 237 278 352 85 123 167 192 310 263
108 53 236 100 306 114 14 2 61 3 105 1 64 -2 107 -13 215 -50z m-3475 -2409
c-5 -83 -3 -149 5 -199 11 -67 11 -79 -4 -101 -51 -79 -92 84 -67 266 19 129
28 158 53 158 20 0 20 -3 13 -124z m1351 -1173 c-12 -93 -37 -125 -265 -358
-120 -123 -242 -254 -271 -292 -60 -79 -132 -221 -156 -309 -18 -67 -13 -157
10 -189 25 -35 49 4 80 130 31 124 76 202 165 288 77 74 103 88 116 68 9 -16
-308 -636 -327 -639 -23 -4 -83 115 -109 216 -36 141 -25 205 73 445 93 226
106 242 358 445 118 95 237 191 263 213 27 21 53 36 59 33 6 -4 8 -25 4 -51z"/>
<path d="M3055 7916 c-5 -3 -22 -7 -37 -10 -32 -7 -157 -111 -312 -258 -82
-78 -108 -108 -103 -121 6 -16 36 -17 365 -17 l359 0 20 23 c12 12 34 49 51
82 16 33 57 107 91 165 53 93 58 107 45 120 -12 12 -55 15 -242 17 -125 1
-231 1 -237 -1z"/>
<path d="M3700 7911 c-36 -3 -71 -10 -78 -14 -21 -14 -213 -347 -210 -365 3
-16 27 -17 281 -17 269 1 278 2 299 22 16 16 28 57 49 165 34 172 35 194 10
208 -21 10 -237 11 -351 1z"/>
<path d="M2514 7434 c-48 -24 -514 -622 -514 -660 0 -21 70 -24 523 -24 375 0
453 2 476 15 24 12 40 41 89 157 148 352 203 490 200 506 -3 16 -34 17 -373
19 -317 2 -374 0 -401 -13z"/>
<path d="M5843 2410 c-12 -5 -29 -19 -37 -32 -21 -32 -236 -595 -236 -617 0
-41 12 -42 397 -35 202 3 385 10 405 15 25 7 49 24 73 52 52 63 374 524 392
562 33 68 57 65 -484 64 -268 0 -498 -4 -510 -9z"/>
<path d="M5045 1661 c-99 -4 -188 -10 -197 -15 -24 -11 -38 -65 -78 -284 -25
-136 -31 -188 -23 -200 9 -15 34 -17 207 -17 l198 0 27 31 c28 31 243 402 254
439 17 54 -22 58 -388 46z"/>
<path d="M5531 1657 c-25 -13 -280 -457 -281 -489 0 -9 10 -20 21 -23 29 -10
485 4 529 16 27 6 92 62 263 226 221 210 257 254 226 274 -23 14 -729 11 -758
-4z"/>
<path d="M4200 1652 c-30 -2 -61 -8 -68 -15 -18 -14 -15 -31 42 -277 37 -157
50 -199 68 -214 21 -17 37 -18 218 -11 187 6 196 7 216 30 16 18 31 72 63 238
40 207 42 246 17 248 -43 3 -512 4 -556 1z"/>
<path d="M3611 1643 c-110 -4 -141 -12 -141 -38 0 -20 249 -418 280 -447 39
-36 89 -42 266 -32 119 7 149 12 157 25 16 26 -86 458 -114 482 -22 18 -98 19
-448 10z"/>
<path d="M5067 7649 c-181 -24 -291 -88 -533 -314 -96 -89 -113 -110 -123
-149 -21 -85 8 -97 104 -41 33 19 128 69 210 111 157 80 205 110 292 181 67
54 102 63 244 63 219 0 325 -43 542 -220 159 -129 182 -145 192 -130 14 22
-11 52 -168 207 -175 173 -230 211 -367 256 -74 25 -222 48 -290 46 -19 -1
-65 -5 -103 -10z"/>
<path d="M5387 7283 c-17 -17 -1 -36 86 -101 108 -80 149 -131 247 -302 132
-230 200 -296 377 -362 99 -37 129 -64 255 -233 121 -160 175 -225 190 -225
28 0 -23 146 -87 246 -57 89 -223 303 -280 360 -28 28 -91 77 -140 109 -118
75 -154 110 -235 231 -86 126 -149 184 -266 240 -87 41 -132 53 -147 37z"/>
<path d="M4848 7206 c-71 -25 -351 -168 -380 -194 -26 -22 -22 -38 15 -66 40
-31 108 -56 151 -56 18 0 106 21 196 46 91 26 194 48 230 51 120 9 196 -52
352 -281 73 -107 191 -228 270 -274 32 -19 99 -51 150 -73 216 -91 333 -153
425 -225 116 -90 136 -104 144 -98 19 11 7 34 -61 112 -88 101 -200 192 -332
266 -243 138 -342 240 -478 488 -85 157 -226 269 -390 313 -86 23 -212 19
-292 -9z"/>
<path d="M3332 6745 c-121 -60 -156 -82 -185 -119 -39 -47 -45 -67 -24 -83 23
-19 128 -53 162 -53 33 0 37 3 65 64 18 36 63 102 106 151 75 85 87 115 45
115 -11 0 -87 -34 -169 -75z"/>
<path d="M3415 6549 c-9 -13 -5 -16 36 -37 54 -28 47 -40 -28 -47 -91 -8 -164
-23 -180 -37 -17 -14 -16 -36 4 -119 11 -48 13 -75 7 -90 -6 -12 -59 -52 -120
-89 -123 -75 -141 -100 -72 -100 81 0 446 136 648 242 179 93 211 125 158 163
-13 8 -100 40 -194 70 -166 53 -246 67 -259 44z m180 -219 c14 -12 14 -15 -1
-32 -43 -47 -224 -66 -224 -23 0 54 174 97 225 55z"/>
<path d="M5215 6410 c-13 -21 34 -81 184 -230 107 -107 192 -181 271 -237 63
-45 134 -101 157 -125 51 -53 250 -418 290 -533 25 -72 28 -93 27 -210 0 -71
-8 -227 -17 -345 l-17 -215 -61 -125 c-70 -145 -162 -287 -248 -382 -114 -128
-170 -232 -262 -483 -61 -168 -70 -211 -44 -222 24 -9 50 21 127 148 39 65 93
146 119 181 70 94 214 241 230 236 8 -2 19 -20 25 -38 20 -61 39 -62 95 -2
105 114 402 499 431 559 25 53 31 81 38 185 5 68 10 161 10 207 0 91 -6 85 60
65 15 -5 21 0 26 22 10 40 -22 408 -40 470 -19 60 -58 123 -196 309 -211 285
-359 394 -700 515 -175 63 -257 104 -341 174 -35 28 -75 60 -89 69 -27 19 -65
22 -75 7z"/>
<path d="M4866 6085 c-12 -31 -6 -270 9 -360 38 -233 1 -550 -82 -695 -40 -69
-119 -165 -176 -214 -29 -24 -160 -115 -292 -202 -132 -87 -260 -179 -285
-204 -33 -34 -81 -116 -176 -296 -203 -384 -223 -442 -231 -659 -7 -182 14
-302 47 -269 6 6 19 80 30 165 11 85 26 173 33 195 25 70 128 267 182 349 81
121 133 175 304 311 164 132 261 199 401 279 174 100 219 134 272 209 61 87
118 197 149 291 23 67 23 81 21 322 -2 296 -5 311 -99 588 -48 141 -73 201
-84 203 -9 2 -19 -4 -23 -13z"/>
<path d="M5274 5995 c-12 -50 59 -414 141 -715 61 -228 68 -279 62 -439 -7
-172 -51 -453 -79 -501 -29 -50 -248 -355 -305 -425 -71 -88 -167 -154 -353
-246 -204 -101 -272 -148 -351 -247 -35 -42 -117 -133 -183 -202 -114 -118
-127 -136 -213 -291 -50 -91 -98 -187 -107 -213 -18 -53 -21 -177 -6 -207 27
-50 53 -14 130 179 77 194 100 221 331 392 342 251 487 341 680 419 185 76
207 94 368 311 115 153 175 264 254 465 95 242 127 345 127 412 0 75 -35 346
-56 433 -22 87 -78 205 -153 320 -87 133 -154 274 -196 415 -47 157 -76 201
-91 140z"/>
</g>
</svg>
